# xmcd CD database file
#
# Track frame offsets:
#	150
#	15900
#	27450
#	40295
#	51420
#	60907
#	71147
#	81447
#	94700
#	106015
#	122940
#	135920
#	146960
#	156785
#	168595
#	180747
#	192765
#	205490
#	217687
#	228617
#	242205
#	253605
#
# Disc length: 3652 seconds
#
# Revision: 10
# Processed by: cddbd v1.5.2PL0 Copyright (c) Steve Scherf et al.
# Submitted via: CDex 1.70beta2
#
DISCID=390e4216
DTITLE=Patsy Cline - The Patsy Cline Collection [CD-4, Sweet Dreams)
DYEAR=1991
DGENRE=Country
TTITLE0=Why Can't He Be You
TTITLE1=Your Kinda Love
TTITLE2=When You Need A Laugh
TTITLE3=Leavin' On Your Mind
TTITLE4=Back In Baby's Arms
TTITLE5=Tra Le La Le La Triangle
TTITLE6=That's How A Heartache Begins
TTITLE7=Leavin' On Your Mind (radio transcription)
TTITLE8=Tennessee Waltz (radio transcription)
TTITLE9=Faded Love
TTITLE10=Someday (You'll Want Me To Love You)
TTITLE11=Love Letters (In The Sand)
TTITLE12=Blue Moon Of Kentucky
TTITLE13=Sweet Dreams (Of You)
TTITLE14=Always
TTITLE15=Does Your Heart Beat For Me
TTITLE16=Bill Bailey, Won't You Please Come Home
TTITLE17=He Called Me Baby
TTITLE18=Crazy Arms
TTITLE19=You Took Him Off My Hands
TTITLE20=I'll Sail My Ship Alone
TTITLE21=Just A Closer Walk With Thee
EXTD=
EXTT0=
EXTT1=
EXTT2=
EXTT3=
EXTT4=
EXTT5=
EXTT6=
EXTT7=
EXTT8=
EXTT9=
EXTT10=
EXTT11=
EXTT12=
EXTT13=
EXTT14=
EXTT15=
EXTT16=
EXTT17=
EXTT18=
EXTT19=
EXTT20=
EXTT21=
PLAYORDER=
